<svg width="35" height="35" viewBox="0 0 35 35" fill="none" xmlns="http://www.w3.org/2000/svg">
<path d="M17.8949 16.5971C15.4617 16.5971 13.0285 16.5865 10.59 16.6064C10.1398 16.6064 9.86882 16.4817 9.63773 16.076C7.84075 12.9311 6.01852 9.79942 4.20693 6.66244C3.14441 4.06641 6.72245 4.84204 8.17411 4.70282C8.6974 4.67895 8.97101 4.88314 9.21406 5.31934C10.2832 7.22725 11.4055 9.10467 12.464 11.0205C12.719 11.4833 13.0179 11.6092 13.5119 11.6079C18.3132 11.5933 23.1145 11.6079 27.9158 11.5893C28.4962 11.5893 28.8281 11.7537 29.1216 12.2721C30.8758 15.3658 32.6554 18.4445 34.4608 21.5081C34.741 21.9841 34.7716 22.3513 34.4728 22.8339C33.741 24.0166 33.0676 25.2351 32.3676 26.4389C31.9759 27.1151 31.94 27.1164 31.5535 26.4482C29.7765 23.3669 27.9888 20.2923 26.2302 17.203C25.9647 16.7297 25.6553 16.5812 25.1306 16.5865C22.7187 16.6117 20.3067 16.5971 17.8949 16.5971Z" fill="#CBCBCB"/>
<path d="M27.9474 30.3396C26.3005 30.7917 25.4611 29.9657 24.7931 28.5563C24.0865 27.0647 23.1395 25.6885 22.348 24.234C22.0371 23.6613 21.6838 23.4385 21.0051 23.4385C16.2477 23.473 11.4916 23.4478 6.73553 23.4703C6.17771 23.4703 5.8616 23.2993 5.58402 22.8074C3.80253 19.6801 2.00111 16.5635 0.17978 13.4575C-0.052646 13.0597 -0.061943 12.764 0.17978 12.3703C0.91159 11.1611 1.6009 9.9267 2.30482 8.70426C2.73779 7.95912 2.74842 7.95647 3.16147 8.66978C4.93588 11.7272 6.71295 14.7807 8.46477 17.85C8.7158 18.2902 8.98673 18.4559 9.50206 18.4546C14.3472 18.4321 19.1975 18.4546 24.0374 18.4281C24.5514 18.4281 24.8342 18.5912 25.08 19.0314C26.8849 22.1975 28.7177 25.3477 30.54 28.5033C31.2717 30.4139 29.2782 30.4218 27.9474 30.3396Z" fill="#CBCBCB"/>
<path d="M21.8792 9.69336C19.4222 9.69336 16.9652 9.68143 14.508 9.70397C14.0711 9.70397 13.8334 9.57138 13.6235 9.19086C12.7071 7.55034 11.7712 5.92174 10.8158 4.30508C10.5861 3.91528 10.5502 3.61431 10.8012 3.21787C11.6433 2.11874 12.5822 -1.29667 14.3567 0.526384C15.054 1.7064 15.7512 2.88508 16.41 4.08764C16.6623 4.54904 16.9599 4.73068 17.5017 4.7267C21.441 4.70416 25.3816 4.7267 29.3223 4.70284C29.9133 4.70284 30.2293 4.88845 30.5175 5.40024C31.8086 7.68955 33.1291 9.9634 34.4795 12.2218C34.7716 12.7097 34.7783 13.0836 34.4648 13.541C34.0226 13.8844 33.4634 16.1927 32.9043 15.0313C31.9971 13.4402 31.0608 11.8611 30.1695 10.2582C29.9358 9.83656 29.6716 9.67746 29.1854 9.68276C26.7456 9.70663 24.3111 9.69336 21.8792 9.69336Z" fill="#CBCBCB"/>
<path d="M21.2323 34.9629C20.7688 35.0703 20.4713 34.8303 20.215 34.3477C19.5867 33.1809 18.8789 32.0566 18.244 30.9004C18.0102 30.4722 17.7247 30.3356 17.2465 30.337C13.3073 30.3542 9.36927 30.3369 5.426 30.3595C4.84427 30.3595 4.50692 30.1977 4.21606 29.6806C2.89455 27.3326 1.53984 25.0017 0.174503 22.6788C-0.405898 21.7388 0.768188 20.9035 1.07366 20.047C1.40836 19.4768 1.45749 19.4768 1.78288 20.0364C2.70197 21.6274 3.63301 23.2038 4.52685 24.8094C4.76192 25.2311 5.03155 25.3796 5.51631 25.3769C10.3401 25.3584 15.1654 25.3769 19.9932 25.3504C20.5908 25.3504 20.903 25.5453 21.1884 26.0531C22.0517 27.6203 22.9465 29.1698 23.8727 30.7016C24.1383 31.1484 24.1197 31.4812 23.8527 31.9028C23.3587 32.6877 22.9137 33.5044 22.4528 34.3092C22.0677 34.9589 22.0704 34.9602 21.2323 34.9629Z" fill="#CBCBCB"/>
<path d="M20.7146 2.82408C17.6505 2.78828 18.1301 3.36105 16.5973 0.582051C16.4286 0.295666 16.3728 0.0861816 16.8244 0.0861816C18.4572 0.0861816 20.0891 0.0861816 21.72 0.0861816C22.5169 0.218767 22.8529 1.74881 23.3735 2.35738C24.0682 3.20858 21.1436 2.68884 20.7146 2.82408Z" fill="#CBCBCB"/>
<path d="M15.4188 34.9602C14.6033 34.813 12.8541 35.3275 12.4012 34.5929C12.3216 34.1382 10.5205 32.0871 11.5818 32.2223C12.5633 32.3708 16.6526 31.8816 16.9621 32.5206C18.7618 35.6191 18.7404 34.8594 15.4188 34.9536V34.9602Z" fill="#CBCBCB"/>
</svg>
